<svg width="353" height="353" viewBox="0 0 353 353" fill="none" xmlns="http://www.w3.org/2000/svg">
<path d="M4.86325 191.514L4.87051 191.652L5.21684 192.751L3.73046 203.163L2.20794 176.889L3.36968 165.99L4.86325 191.514ZM124.822 14.0793L123.942 14.8215L107.259 18.7578L107.736 18.5687L128.82 10.3976L141.497 7.63266L124.822 14.0793ZM210.796 6.59952L209.295 6.71591L204.395 5.26068L223.336 8.84048L224.267 9.16064L210.796 6.59952ZM144.015 343.803L144.795 344.13L176.132 349.289L161.78 350.766L131.785 345.84L144.015 343.803ZM126.994 345.055L94.3652 331.201L105.405 327.337L105.499 327.403L142.118 342.995L128.387 345.28L126.994 345.055ZM34.7141 279.257L40.2989 269.769L69.154 301.267L60.5602 307.903L59.7088 307.299L36.7417 282.24L34.7141 279.257ZM18.479 233.104L39.5341 268.917L34.0791 278.173L15.2393 246.092L15.0733 245.561L18.479 233.104ZM17.4472 231.293L17.4833 231.409L17.7287 231.824L14.4672 243.64L4.19947 211.203L4.05516 208.693L5.98892 195.167L17.4472 231.293ZM67.9057 44.4934L65.5245 46.2469L68.2016 43.9987L67.9057 44.4934ZM155.185 4.66397L156.809 4.54758L180.418 9.71359L158.432 18.2558L158.086 18.5468L128.798 14.916L155.185 4.66397ZM307.066 68.8319L291.379 51.8495L294.143 46.0724L314.469 68.0243L307.066 68.8319ZM340.77 122.173L326.151 109.767L326.122 109.44L319.599 90.2747L331.577 95.688L331.844 96.1319L337.523 112.7L340.77 122.173ZM347.632 143.223L349.912 168.296L346.246 154.493L346.441 153.482L346.47 153.329L344.745 134.302L347.632 143.223ZM345.618 205.659L341.13 180.76L341.448 180.178L345.777 157.011L350.503 174.837L350.778 177.857L345.618 205.659ZM253.259 330.561L233.07 339.365L244.702 332.409L245.777 332.299L245.943 332.278L262.834 324.922L253.259 330.561ZM187.879 348.067L206.445 336.309L207 336.403L242.082 332.685L225.082 342.85L221.301 344.494L187.879 348.067ZM17.1658 132.265L19.4387 170.224L19.446 170.363L19.5469 170.661L6.92694 189.069L4.79835 152.747L5.09416 151.459L17.1658 132.265ZM23.934 99.0277L17.0432 129.471L17.0071 129.624L17.0576 130.424L5.83016 148.229L12.7716 117.691L23.934 99.0277ZM84.9128 61.2648L84.8262 61.4175L84.7757 61.6286L53.7343 72.5864L70.3084 44.7699L71.0228 44.1732L99.8562 36.0167L84.9128 61.2648ZM138.135 36.0677L125.746 57.2193L87.5753 61.0975L102.649 35.6165L102.836 35.4637L138.135 36.0677ZM211.293 26.6305L210.889 26.7907L185.707 10.6814L210.673 8.83322L211.257 8.94961L229.051 25.2772L211.293 26.6305ZM270.808 37.4283L251.982 29.1044L251.426 28.9953L241.88 15.3672L267.597 26.7179L267.9 26.9435L270.808 37.4283ZM290.491 51.1729L272.474 38.1631L272.113 38.0031L269.328 27.9694L293.313 45.2501L290.491 51.1729ZM330.134 237.106L308.776 256.584L309.894 220.328L309.974 220.298L327.745 204.204L330.365 236.677L330.134 237.106ZM297.173 290.855L266.507 304.148L279.004 272.323L307.058 260.317L297.628 290.44L297.173 290.855ZM32.6215 211.698L32.6504 211.778L19.114 229.255L7.04962 191.245L7.02792 190.859L19.9582 171.971L32.6215 211.698ZM42.579 109.454L42.5502 109.614L42.5646 109.876L19.6769 127.79L27.4841 93.2942L28.0397 92.3773L50.1266 75.7588L42.579 109.454ZM77.6828 93.8617L77.6539 93.9855L45.0612 108.472L52.7025 74.3254L52.8468 74.078L84.4943 62.9019L77.6828 93.8617ZM344.247 153.22L339.723 177.435L324.21 149.335L324.231 149.298L327.601 131.792L344.197 152.704L344.247 153.22ZM315.371 165.444L315.392 165.422L323.582 150.477L339.399 179.138L339.348 179.421L327.998 200.318L315.371 165.444ZM327.276 201.65L309.606 217.643L301.871 177.544L314.483 166.237L327.298 201.613L327.276 201.65ZM307.563 257.698L279.618 269.703L285.693 230.609L308.776 220.808L307.643 257.618L307.563 257.698ZM264.97 304.81L228.914 308.543L245.055 275.75L277.763 272.468L265.107 304.752L264.97 304.81ZM245.38 330.109L208.761 333.98L227.521 310.879L227.666 310.908L263.549 307.19L246.022 329.826L245.38 330.109ZM87.597 285.572L123.891 311.526L106.559 325.445L71.6867 300.554L87.597 285.572ZM56.3175 251.622L86.7672 284.837L70.8424 299.834L41.6049 267.95L56.3175 251.622ZM33.2421 212.804L55.6031 250.771L40.9628 267.011L19.5253 230.529L33.2421 212.804ZM45.0179 149.182L21.5457 168.602L19.2222 129.813L19.2944 129.5L42.644 111.193L45.0179 149.182ZM170.259 62.3271L166.506 80.2118L122.318 83.5151L127.744 58.3252L170.259 62.3271ZM170.569 61.2503L128.271 57.2702L140.545 36.3296L179.191 46.3488L170.569 61.2503ZM271.161 39.9822L268.434 60.9373L258.671 56.6153L258.541 56.5936L252.502 31.7529L271.161 39.9822ZM287.382 77.2577L279.567 68.781L290.188 53.814L304.749 69.545L287.382 77.2577ZM293.803 87.7644L288.031 78.1817L305.471 70.4109L316.352 88.3755L293.803 87.7644ZM297.577 98.8386L294.229 88.8848L316.994 89.4596L323.474 108.414L297.577 98.8386ZM325.725 129.886L322.456 147.123L296.56 119.677L298.299 110.917L325.725 129.849V129.886ZM285.816 228.149L284.625 184.762L300.853 178.024L308.646 218.458L285.816 228.149ZM278.449 270.169L245.928 273.429L257.798 233.33L284.56 230.754L278.449 270.169ZM227.644 308.652L188.954 302.155L208.948 269.587L243.915 275.582L227.644 308.652ZM45.3715 150.317L57.8833 189.28L34.3966 210.003L21.6323 169.962L45.3715 150.317ZM80.2804 130.599L91.6593 165.728L59.7449 187.862L47.262 148.993L80.2804 130.599ZM122.261 114.104L131.612 142.779L93.5859 164.527L82.2863 129.653L122.261 114.104ZM227.99 58.98L195.852 35.0491L211.618 28.828L236.021 55.8149L227.99 58.98ZM314.144 163.116L291.935 128.176L296.055 120.754L322.197 148.432L314.144 163.116ZM258.288 231.053L264.782 186.741L283.543 185.017L284.734 228.506L258.288 231.053ZM244.774 273.472L210.016 267.549L228.135 228.229L256.694 233.214L244.774 273.472ZM187.821 301.907L149.398 285.478L173.166 254.292L207.88 269.23L187.821 301.907ZM147.941 287.239L186.45 303.734L166.146 327.359L126.59 310.5L147.941 287.239ZM58.41 190.285L80.302 227.327L57.205 249.148L34.8007 211.102L58.41 190.285ZM92.1789 166.71L111.95 200.093L81.976 225.828L60.1634 188.909L92.1789 166.71ZM132.11 143.761L148.302 170.996L113.667 198.667L94.026 165.546L132.11 143.761ZM168.195 102.055L174.804 122.144L133.596 141.746L124.324 113.442L168.195 102.055ZM215.551 74.5219L213.74 83.3987L168.75 80.2263L172.423 62.7272L215.551 74.5219ZM220.133 66.067L215.911 73.4669L172.856 61.7013L181.298 47.1128L220.133 66.067ZM220.775 65.1502L182.114 46.2906L194.676 35.551L227.096 59.6932L220.775 65.1502ZM259.609 90.5219L258.815 59.1038L267.979 63.1348L259.609 90.5219ZM263.375 95.0695L295.449 99.4498L296.235 108.552L263.375 95.0695ZM284.871 134.528L291.148 128.969L313.502 164.149L301.156 175.216L284.871 134.528ZM257.177 231.053L228.957 226.148L243.684 183.089L263.686 186.661L257.177 231.053ZM208.934 267.273L174.458 252.466L198.753 215.649L227.074 227.902L208.934 267.273ZM148.403 284.961L113.09 259.713L140.285 230.863L172.207 253.739L148.403 284.961ZM111.553 261.307L146.974 286.664L125.558 309.998L89.1844 284.015L111.553 261.307ZM80.9947 228.186L110.723 260.579L88.3474 283.295L57.8472 250.058L80.9947 228.186ZM112.635 200.959L139.448 230.143L112.253 258.986L82.6254 226.723L112.635 200.959ZM148.987 171.869L170.893 195.691L140.949 228.513L114.323 199.562L148.987 171.869ZM175.288 123.134L186.674 142.211L150.062 169.642L134.051 142.757L175.288 123.134ZM255.02 90.2019L222.744 66.3727L228.755 61.1775L255.02 90.2019ZM256.016 89.6488L229.772 60.6536L237.378 57.6195L256.016 89.6488ZM257.235 89.5543L238.561 57.4595L247.263 56.7682L257.235 89.5543ZM260.525 91.2714L268.939 63.7459L277.395 69.8361L260.525 91.2714ZM261.333 92.0427L278.218 70.5782L285.361 78.2981L261.333 92.0427ZM262.105 92.8722L286.061 79.1786L291.386 87.9827L262.105 92.8722ZM291.949 89.0158L295.102 98.2929L262.834 93.8763L291.949 89.0158ZM263.541 96.3356L296.286 109.775L294.669 118.127L263.541 96.3356ZM275.851 138.333L283.904 135.059L300.247 175.878L284.365 182.528L275.851 138.333ZM227.904 225.85L199.915 213.765L222.788 174.153L242.623 182.79L227.904 225.85ZM187.352 143.085L202.721 159.783L172.373 194.039L150.719 170.523L187.352 143.085ZM214.678 95.3679L217.99 105.373L176.839 121.271L170.345 101.64L214.678 95.3679ZM263.253 97.4853L294.366 119.255L290.455 126.306L263.253 97.4853ZM265.461 139.439L274.783 138.624L283.305 182.812L264.948 184.493L265.461 139.439ZM254.414 137.569L264.371 139.396L263.859 184.442L244.283 180.971L254.414 137.569ZM218.466 106.377L224.159 115.908L188.463 140.916L177.315 122.275L218.466 106.377ZM220.075 104.667L216.914 95.2078L254.984 94.5529L220.075 104.667ZM282.901 133.08L275.252 136.23L261.499 98.7513L282.901 133.08ZM262.531 98.322L289.799 127.208L283.832 132.498L262.531 98.322ZM224.83 116.781L232.522 125.142L204.179 158.11L189.134 141.797L224.83 116.781ZM225.991 114.671L220.587 105.671L255.669 95.5134L225.991 114.671ZM265.338 137.22L260.323 98.7513L274.163 136.449L265.338 137.22ZM233.957 123.439L226.67 115.552L256.42 96.3428L233.957 123.439ZM259.169 98.3875L264.22 137.111L254.796 135.416L259.169 98.3875ZM244.37 130.955L258.13 97.798L253.728 135.044L244.37 130.955ZM243.417 130.38L234.78 124.174L257.228 97.0996L243.417 130.38ZM222.874 171.665L205.009 158.837L233.359 125.855L242.486 132.432L222.874 171.665ZM243.237 180.644L223.827 172.218L243.46 132.949L253.353 137.293L243.237 180.644ZM198.955 213.226L173.202 194.767L203.558 160.504L221.814 173.63L198.955 213.226ZM254.464 93.4542L216.633 94.1019L215.904 84.854L254.464 93.4542ZM218.004 74.2454L222.023 67.2167L254.414 91.1259L218.004 74.2454ZM254.24 92.2682L215.919 83.7188L217.643 75.3004L254.24 92.2682ZM173.484 251.935L141.786 229.248L171.73 196.411L197.786 215.111L173.484 251.935ZM258.49 89.8962L248.468 56.9501L257.704 58.6673L258.49 89.8962ZM213.667 84.5047L214.439 94.2765L170.107 100.556L168.678 81.3251L213.667 84.5047ZM272.178 40.6807L289.373 53.0647L278.709 68.0752L269.48 61.4103L272.178 40.6807ZM166.47 81.3177L167.935 100.985L124.129 112.35L122.188 84.6283L166.47 81.3177ZM207.058 334.162L167.387 327.585L187.547 304.141L226.273 310.668L207.246 334.14L207.058 334.162ZM323.943 109.775L325.602 128.445L298.537 109.731L298.544 109.702L297.714 100.068L323.921 109.724L323.943 109.775ZM251.239 31.1927L257.358 56.368L247.552 54.5199L247.501 54.5271L232.349 27.6419L251.217 31.1853L251.239 31.1927ZM230.934 27.3728L246.289 54.6218L237.248 55.3347L237.125 55.3858L213.011 28.7189L230.869 27.3654L230.934 27.3728ZM120.009 84.9704L121.972 113.027L82.1276 128.532L79.8835 94.4074L120.009 84.9704ZM77.7261 95.1569L79.9846 129.507L47.1393 147.807L44.7653 109.818L77.7261 95.1569ZM145.401 341.984L107.663 325.94L124.865 312.152L164.255 328.96L145.617 342.02L145.401 341.984ZM183.867 10.8197L209.634 27.2781L193.63 33.5428L193.529 33.6302L161.174 19.5582L183.47 10.8487L183.867 10.8197ZM159.709 20.1331L192.605 34.416L179.79 45.3665L141.548 35.4419L159.565 20.1912L159.709 20.1331ZM125.486 58.3543L119.995 83.8353L80.0783 93.236L86.8899 62.2834L125.486 58.3543ZM147.176 342.275L165.453 329.469L165.496 329.484L204.807 336.032L185.39 348.336L184.545 348.423L147.176 342.275ZM278.543 315.659L248.064 328.938L265.071 307.03L265.36 307.001L295.413 294.027L280.556 313.818L278.543 315.659ZM299.244 288.956L308.393 259.75L308.769 259.589L329.766 240.431L323.156 266.16L322.226 267.891L299.244 288.956ZM331.324 234.894L328.777 203.272L329.023 203.047L340.293 182.31L345.048 208.715L344.832 209.872L331.324 234.894ZM341.679 124.829L344.017 150.703L327.875 130.366L327.947 130.002L326.288 111.339L341.469 124.218L341.679 124.829ZM126.619 15.7674L156.931 19.5218L139.015 34.6925L138.871 34.8162L138.777 34.9689L104.135 34.3723L125.955 16.0221L126.619 15.7674ZM50.5595 58.7692L52.183 57.4157L66.4554 46.9308L50.6316 73.4886L50.4945 74.0926L29.5405 89.8598L45.6817 62.8583L50.5595 58.7692ZM92.5757 330.444L84.4727 324.965L61.4983 308.572L69.9766 302.024L104.301 326.551L92.8499 330.561L92.5757 330.444ZM304.418 291.91L288.262 306.739L284.993 309.736L297.455 293.147L298.378 292.747L315.32 277.219L304.418 291.91ZM338.554 237.572L331.332 250.982L325.328 262.129L331.245 239.078L331.887 238.496L343.028 217.854L338.554 237.572ZM315.428 69.0574L330.56 94.0145L319.108 88.8339L319.022 88.572L307.722 69.8725L315.407 69.0429L315.428 69.0574ZM239.355 14.2539L239.932 14.5086L249.875 28.7042L230.992 25.1317L230.53 25.1681L213.307 9.3353L239.355 14.2539ZM193.579 3.21613L206.17 6.9487L183.146 8.65134L182.287 8.98599L160.698 4.26376L188.37 2.23386L193.579 3.21613ZM96.2629 23.0216L99.7697 21.661L122.059 16.4076L100.953 34.1613L100.672 34.6342L73.1009 42.4343L96.2629 23.0216ZM91.4429 332.35L126.258 347.15L161.715 353L184.48 350.664L184.618 350.65H184.625L221.871 346.67L254.19 332.569C254.197 332.569 254.197 332.569 254.197 332.561L279.647 317.602L279.755 317.551L305.976 293.481L323.921 269.339L323.979 269.281L340.56 238.496C340.647 238.336 340.676 238.154 340.683 237.979L346.924 210.65L346.932 210.621L346.968 210.461V210.454L352.971 178.119L353 177.966L349.811 142.903C349.796 142.743 349.746 142.59 349.674 142.459L343.8 124.225L333.886 95.2952L317.247 67.806L295.059 43.8094L268.78 24.8479L240.12 12.1657H240.105L240.033 12.1294L223.957 6.71591L223.863 6.69403C223.848 6.69403 223.834 6.67953 223.812 6.67953L188.492 0L154.861 2.46664L128.271 8.2439L128.17 8.28027C128.148 8.28754 128.127 8.28747 128.105 8.29477L95.5774 20.9116L95.3032 21.0135V21.0207L95.1373 21.0862L94.6033 21.53L71.1888 38.6143C71.1815 38.6143 71.1816 38.6143 71.1816 38.6216L59.1388 48.7063L44.0221 61.3667L43.9933 61.3885L43.849 61.6286L28.4799 87.124L10.8017 116.694L10.7079 116.847L2.61924 152.405L2.58316 152.558L2.59035 152.667L0 176.831L2.0131 211.473L2.02036 211.611L13.1829 246.885L32.8453 280.428L35.7676 284.736L57.3565 308.31L83.2243 326.792L91.4429 332.35Z" fill="url(#paint0_linear_0_2850)"/>
<defs>
<linearGradient id="paint0_linear_0_2850" x1="176.5" y1="0" x2="176.5" y2="353" gradientUnits="userSpaceOnUse">
<stop stop-color="#6EE7B7" stop-opacity="0.8"/>
<stop offset="1" stop-color="#059669" stop-opacity="0"/>
</linearGradient>
</defs>
</svg>
