<svg width="24" height="24" viewBox="0 0 24 24" fill="none" xmlns="http://www.w3.org/2000/svg">
<path d="M12 14.1163C13.1572 14.1163 14.0952 13.1688 14.0952 11.9999C14.0952 10.8311 13.1572 9.88354 12 9.88354C10.8428 9.88354 9.90475 10.8311 9.90475 11.9999C9.90475 13.1688 10.8428 14.1163 12 14.1163Z" fill="#FAFAFA"/>
<path d="M12 16.7618C17.7858 16.7618 22.4762 14.6299 22.4762 11.9999C22.4762 9.37001 17.7858 7.23804 12 7.23804C6.21415 7.23804 1.5238 9.37001 1.5238 11.9999C1.5238 14.6299 6.21415 16.7618 12 16.7618Z" stroke="#FAFAFA" stroke-width="1.5"/>
<path d="M7.91732 14.381C10.8102 19.4423 14.9833 22.4793 17.2381 21.1644C19.4929 19.8494 18.9756 14.6804 16.0827 9.61913C13.1898 4.55783 9.01672 1.52082 6.76191 2.83579C4.50711 4.15075 5.0244 9.31973 7.91732 14.381Z" stroke="#FAFAFA" stroke-width="1.5"/>
<path d="M7.91732 9.61894C5.0244 14.6802 4.50711 19.8492 6.76192 21.1642C9.01673 22.4791 13.1898 19.4421 16.0827 14.3808C18.9756 9.31955 19.4929 4.15056 17.2381 2.8356C14.9833 1.52064 10.8102 4.55764 7.91732 9.61894Z" stroke="#FAFAFA" stroke-width="1.5"/>
</svg>
