<svg width="150" height="150" viewBox="0 0 150 150" fill="none" xmlns="http://www.w3.org/2000/svg">
<g filter="url(#filter0_dddd_0_2909)">
<path fill-rule="evenodd" clip-rule="evenodd" d="M84 64C85.1046 64 86 64.8923 86 65.9969C86 71.6845 86 80.1774 86 84.0041C86 85.1086 85.1077 86 84.0031 86C78.3155 86 69.8226 86 65.9959 86C64.8914 86 64 85.108 64 84.0034C64.0001 78.2015 64 69.7932 64 65.995C64 64.8904 64.8954 64 66 64L84 64ZM76.2297 75.7043V73.9H68.4V75.7043H71.1953V83.7382H73.4206V75.7043H76.2297ZM77.1168 83.5261C77.4757 83.709 77.9001 83.8463 78.39 83.9378C78.8801 84.0292 79.3964 84.075 79.9393 84.075C80.4684 84.075 80.971 84.0247 81.4472 83.924C81.9234 83.8234 82.3408 83.6576 82.6997 83.4266C83.0585 83.1956 83.3426 82.8938 83.552 82.521C83.7613 82.1481 83.866 81.6873 83.866 81.1384C83.866 80.7405 83.8061 80.3918 83.6865 80.0922C83.567 79.7925 83.3944 79.5261 83.169 79.2928C82.9436 79.0595 82.6732 78.8503 82.3581 78.665C82.0429 78.4798 81.6876 78.3048 81.2919 78.1402C81.002 78.0212 80.7421 77.9057 80.5121 77.7937C80.282 77.6816 80.0865 77.5672 79.9255 77.4506C79.7645 77.3339 79.6403 77.2105 79.5529 77.0801C79.4655 76.9498 79.4218 76.8022 79.4218 76.6376C79.4218 76.4866 79.4609 76.3505 79.5391 76.2294C79.6173 76.1081 79.7277 76.004 79.8703 75.9171C80.013 75.8302 80.1877 75.7628 80.3948 75.7147C80.6018 75.6668 80.8319 75.6427 81.0849 75.6427C81.2689 75.6427 81.4633 75.6564 81.668 75.6839C81.8727 75.7114 82.0786 75.7537 82.2856 75.8108C82.4927 75.868 82.694 75.94 82.8895 76.027C83.085 76.1139 83.2656 76.2145 83.4312 76.3288V74.2774C83.0953 74.1493 82.7285 74.0543 82.3305 73.9927C81.9326 73.9309 81.4759 73.9 80.9606 73.9C80.4362 73.9 79.9393 73.956 79.4701 74.0681C79.0008 74.1802 78.5879 74.3551 78.2313 74.593C77.8748 74.8309 77.593 75.1339 77.386 75.502C77.1789 75.8703 77.0754 76.3105 77.0754 76.8228C77.0754 77.4769 77.2652 78.035 77.6448 78.4969C78.0243 78.9589 78.6005 79.35 79.3734 79.6702C79.6771 79.7937 79.96 79.9149 80.2223 80.0339C80.4845 80.1527 80.7111 80.2763 80.902 80.4043C81.0929 80.5324 81.2436 80.6719 81.354 80.8228C81.4645 80.9738 81.5197 81.1453 81.5197 81.3374C81.5197 81.4793 81.4851 81.6107 81.4161 81.7319C81.3471 81.8532 81.2424 81.9583 81.1021 82.0475C80.9618 82.1367 80.787 82.2065 80.5777 82.2568C80.3684 82.3071 80.1233 82.3323 79.8427 82.3323C79.3642 82.3323 78.8904 82.2488 78.4211 82.0819C77.9519 81.9149 77.5171 81.6645 77.1168 81.3306V83.5261Z" fill="#FAFAFA"/>
</g>
<defs>
<filter id="filter0_dddd_0_2909" x="-1" y="-1" width="152" height="152" filterUnits="userSpaceOnUse" color-interpolation-filters="sRGB">
<feFlood flood-opacity="0" result="BackgroundImageFix"/>
<feColorMatrix in="SourceAlpha" type="matrix" values="0 0 0 0 0 0 0 0 0 0 0 0 0 0 0 0 0 0 127 0" result="hardAlpha"/>
<feOffset/>
<feGaussianBlur stdDeviation="32"/>
<feColorMatrix type="matrix" values="0 0 0 0 0.0196078 0 0 0 0 0.588235 0 0 0 0 0.411765 0 0 0 1 0"/>
<feBlend mode="normal" in2="BackgroundImageFix" result="effect1_dropShadow_0_2909"/>
<feColorMatrix in="SourceAlpha" type="matrix" values="0 0 0 0 0 0 0 0 0 0 0 0 0 0 0 0 0 0 127 0" result="hardAlpha"/>
<feOffset/>
<feGaussianBlur stdDeviation="24"/>
<feColorMatrix type="matrix" values="0 0 0 0 0.0196078 0 0 0 0 0.588235 0 0 0 0 0.411765 0 0 0 1 0"/>
<feBlend mode="normal" in2="effect1_dropShadow_0_2909" result="effect2_dropShadow_0_2909"/>
<feColorMatrix in="SourceAlpha" type="matrix" values="0 0 0 0 0 0 0 0 0 0 0 0 0 0 0 0 0 0 127 0" result="hardAlpha"/>
<feOffset/>
<feGaussianBlur stdDeviation="16"/>
<feColorMatrix type="matrix" values="0 0 0 0 0.0196078 0 0 0 0 0.588235 0 0 0 0 0.411765 0 0 0 1 0"/>
<feBlend mode="normal" in2="effect2_dropShadow_0_2909" result="effect3_dropShadow_0_2909"/>
<feColorMatrix in="SourceAlpha" type="matrix" values="0 0 0 0 0 0 0 0 0 0 0 0 0 0 0 0 0 0 127 0" result="hardAlpha"/>
<feOffset/>
<feGaussianBlur stdDeviation="4"/>
<feColorMatrix type="matrix" values="0 0 0 0 0.431373 0 0 0 0 0.905882 0 0 0 0 0.717647 0 0 0 0.8 0"/>
<feBlend mode="normal" in2="effect3_dropShadow_0_2909" result="effect4_dropShadow_0_2909"/>
<feBlend mode="normal" in="SourceGraphic" in2="effect4_dropShadow_0_2909" result="shape"/>
</filter>
</defs>
</svg>
