<svg width="16" height="16" viewBox="0 0 16 16" fill="none" xmlns="http://www.w3.org/2000/svg">
<g clip-path="url(#clip0_0_3054)">
<path d="M8.99998 4.66683C9.18407 4.66683 9.33331 4.51759 9.33331 4.3335C9.33331 4.1494 9.18407 4.00016 8.99998 4.00016C8.81588 4.00016 8.66665 4.1494 8.66665 4.3335C8.66665 4.51759 8.81588 4.66683 8.99998 4.66683Z" stroke="#A1A1AA" stroke-linecap="round" stroke-linejoin="round"/>
<path d="M11.6666 7.3335C11.8507 7.3335 12 7.18426 12 7.00016C12 6.81607 11.8507 6.66683 11.6666 6.66683C11.4826 6.66683 11.3333 6.81607 11.3333 7.00016C11.3333 7.18426 11.4826 7.3335 11.6666 7.3335Z" stroke="#A1A1AA" stroke-linecap="round" stroke-linejoin="round"/>
<path d="M5.66665 5.3335C5.85074 5.3335 5.99998 5.18426 5.99998 5.00016C5.99998 4.81607 5.85074 4.66683 5.66665 4.66683C5.48255 4.66683 5.33331 4.81607 5.33331 5.00016C5.33331 5.18426 5.48255 5.3335 5.66665 5.3335Z" stroke="#A1A1AA" stroke-linecap="round" stroke-linejoin="round"/>
<path d="M4.33331 8.66683C4.51741 8.66683 4.66665 8.51759 4.66665 8.3335C4.66665 8.1494 4.51741 8.00016 4.33331 8.00016C4.14922 8.00016 3.99998 8.1494 3.99998 8.3335C3.99998 8.51759 4.14922 8.66683 4.33331 8.66683Z" stroke="#A1A1AA" stroke-linecap="round" stroke-linejoin="round"/>
<path d="M7.99998 1.3335C4.33331 1.3335 1.33331 4.3335 1.33331 8.00016C1.33331 11.6668 4.33331 14.6668 7.99998 14.6668C8.61731 14.6668 9.09865 14.1695 9.09865 13.5415C9.09865 13.2502 8.97865 12.9848 8.80731 12.7915C8.61398 12.5988 8.51531 12.3568 8.51531 12.0415C8.51279 11.8948 8.53982 11.749 8.59481 11.613C8.6498 11.4769 8.73161 11.3533 8.83538 11.2496C8.93915 11.1458 9.06274 11.064 9.1988 11.009C9.33485 10.954 9.48059 10.927 9.62731 10.9295H10.958C12.992 10.9295 14.6613 9.26083 14.6613 7.22683C14.6433 4.00816 11.6406 1.3335 7.99998 1.3335Z" stroke="#A1A1AA" stroke-linecap="round" stroke-linejoin="round"/>
</g>
<defs>
<clipPath id="clip0_0_3054">
<rect width="16" height="16" fill="white"/>
</clipPath>
</defs>
</svg>
